<?xml version="1.0" encoding="utf-8"?>
<!-- Generator: Adobe Illustrator 13.0.0, SVG Export Plug-In . SVG Version: 6.00 Build 14948)  -->
<!DOCTYPE svg PUBLIC "-//W3C//DTD SVG 1.1//EN" "http://www.w3.org/Graphics/SVG/1.1/DTD/svg11.dtd" [
	<!ENTITY ns_flows "http://ns.adobe.com/Flows/1.0/">
	<!ENTITY ns_extend "http://ns.adobe.com/Extensibility/1.0/">
	<!ENTITY ns_ai "http://ns.adobe.com/AdobeIllustrator/10.0/">
	<!ENTITY ns_graphs "http://ns.adobe.com/Graphs/1.0/">
]>
<svg version="1.1" id="Calque_1" xmlns:x="&ns_extend;" xmlns:i="&ns_ai;" xmlns:graph="&ns_graphs;"
	 xmlns="http://www.w3.org/2000/svg" xmlns:xlink="http://www.w3.org/1999/xlink" xmlns:a="http://ns.adobe.com/AdobeSVGViewerExtensions/3.0/"
	 x="0px" y="0px" width="400px" height="400px" viewBox="0 0 400 400" enable-background="new 0 0 400 400" xml:space="preserve">
<rect x="-222.507" y="245.513" transform="matrix(-0.7071 -0.7071 0.7071 -0.7071 -535.8904 304.1594)" fill="#C6C6C6" width="35.114" height="35.113"/>
<rect x="-222.507" y="245.513" transform="matrix(-0.7071 -0.7071 0.7071 -0.7071 -535.8904 304.1594)" fill="none" stroke="#C6C6C6" stroke-width="4" stroke-miterlimit="10" width="35.114" height="35.113"/>
<rect x="-222.508" y="245.507" fill="#C6C6C6" width="35.108" height="35.112"/>
<rect x="-222.508" y="245.507" fill="none" stroke="#C6C6C6" stroke-width="4" stroke-miterlimit="10" width="35.108" height="35.112"/>
<polygon fill="#1D1D1B" points="-357.165,527.4 -324.991,486.883 -324.991,486.614 -354.328,486.614 -354.328,478.338 
	-310.111,478.338 -310.111,484.205 -341.837,524.372 -341.837,524.65 -309.644,524.65 -309.644,532.924 -357.165,532.924 "/>
<polygon fill="#1D1D1B" points="-265.024,508.709 -288.727,508.709 -288.727,524.722 -262.225,524.722 -262.225,532.924 
	-300.221,532.924 -300.221,478.338 -263.609,478.338 -263.609,486.542 -288.727,486.542 -288.727,500.575 -265.024,500.575 "/>
<polygon fill="#1D1D1B" points="-252.164,478.338 -240.668,478.338 -240.668,524.557 -214.803,524.557 -214.803,532.924 
	-252.164,532.924 "/>
<polygon fill="#1D1D1B" points="-202.802,478.338 -191.306,478.338 -191.306,524.557 -165.441,524.557 -165.441,532.924 
	-202.802,532.924 "/>
<rect x="-153.44" y="478.337" fill="#1D1D1B" width="11.496" height="54.587"/>
<g>
	<g>
		<g>
			<g>
				<defs>
					<rect id="SVGID_1_" x="-597.5" y="-12" width="1366" height="768"/>
				</defs>
				<clipPath id="SVGID_2_">
					<use xlink:href="#SVGID_1_"  overflow="visible"/>
				</clipPath>
				<path clip-path="url(#SVGID_2_)" fill="#1D1D1B" d="M-78.348,530.434c-4.062,1.268-11.88,3.036-20.252,3.036
					c-10.609,0-18.71-2.313-24.645-7.271c-5.616-4.646-8.856-11.815-8.83-20.047c0.053-17.313,14.245-28.357,35.056-28.357
					c7.738,0,13.771,1.36,16.695,2.567l-2.548,8.024c-3.426-1.312-7.645-2.321-14.3-2.321c-13.392,0-22.851,6.889-22.851,19.568
					c0,12.423,8.813,19.74,21.838,19.74c4.156,0,7.212-0.469,8.684-1.085v-13.625h-11.075v-7.834h22.228V530.434z"/>
			</g>
		</g>
	</g>
	<g>
		<g>
			<g>
				<defs>
					<rect id="SVGID_3_" x="-597.5" y="-12" width="1366" height="768"/>
				</defs>
				<clipPath id="SVGID_4_">
					<use xlink:href="#SVGID_3_"  overflow="visible"/>
				</clipPath>
				<polygon clip-path="url(#SVGID_4_)" fill="#1D1D1B" points="-35.753,508.709 -59.455,508.709 -59.455,524.722 -32.955,524.722 
					-32.955,532.924 -70.951,532.924 -70.951,478.338 -34.338,478.338 -34.338,486.542 -59.455,486.542 -59.455,500.575 
					-35.753,500.575 				"/>
			</g>
		</g>
	</g>
	<g>
		<g>
			<g>
				<defs>
					<rect id="SVGID_5_" x="-597.5" y="-12" width="1366" height="768"/>
				</defs>
				<clipPath id="SVGID_6_">
					<use xlink:href="#SVGID_5_"  overflow="visible"/>
				</clipPath>
				<path clip-path="url(#SVGID_6_)" fill="#B2B2B2" d="M-271.939,559.441c0.239-0.645,0.521-1.084,0.718-1.324
					c0.318-0.402,0.875-0.563,1.436-0.563c0.675,0,1.352,0.279,1.553,0.726c0.079,0.197,0.117,0.398,0.117,0.724
					c0,0.159,0,0.321-0.038,0.522c-0.797,4.616-3.902,12.896-5.295,20.375c6.646-17.08,16.042-36.449,27.427-37.136h0.561
					c6.405,0,8.04,7.354,8.04,14.789c0,5.345-0.838,10.729-1.354,13.422c-1.354,7.032-3.623,14.587-6.569,21.657
					c10.151-4.419,18.11-7.271,18.191-7.271c0.24-0.038,0.44-0.079,0.597-0.079c0.6,0,0.836,0.281,0.836,0.604
					c0,0.401-0.396,0.925-0.953,1.125c-0.077,0.04-8.599,2.491-19.386,7.153c-0.479,1.045-1.154,2.653-1.673,3.657
					c-8.679,17.761-23.129,25.033-30.77,25.033c-3.106,0-5.059-1.203-5.059-3.373c0-4.744,9.193-14.107,36.066-25.924
					c3.263-7.393,5.688-15.43,7.124-22.902c0.355-1.771,0.875-6.312,0.875-11.131c0-7.194-1.153-14.949-5.813-14.949h-0.234
					c-12.7,0.763-23.328,26.644-29.262,44.523c-0.118,0.644-0.677,2.01-0.796,2.611c-1.393,6.745-3.704,11.613-4.539,12.94
					c-0.157,0.238-0.354,0.438-0.556,0.479c-0.119,0.042-0.2,0.042-0.32,0.042c-0.438,0-0.675-0.481-0.675-1.445
					c0-0.767,0.158-1.852,0.479-3.177c0.598-2.371,1.553-5.748,2.823-9.726c0.199-0.646,0.4-1.245,0.601-1.927
					c0.874-4.305,1.791-9.047,2.628-13.587v-1.084C-275.162,566.557-272.814,561.613-271.939,559.441 M-248.412,595.046
					c-24.879,10.931-33.359,19.29-33.359,23.313c0,1.727,1.515,2.608,3.941,2.608c6.688,0,20.38-6.951,28.66-23.829
					C-248.929,596.654-248.651,595.53-248.412,595.046"/>
			</g>
		</g>
	</g>
	<g>
		<g>
			<g>
				<defs>
					<rect id="SVGID_7_" x="-597.5" y="-12" width="1366" height="768"/>
				</defs>
				<clipPath id="SVGID_8_">
					<use xlink:href="#SVGID_7_"  overflow="visible"/>
				</clipPath>
				<path clip-path="url(#SVGID_8_)" fill="#B2B2B2" d="M-220.391,583.594c0,3.376-5.375,5.547-6.485,5.988
					c0,0.241-0.04,0.521-0.04,0.803c0,0.966,0.155,2.09,0.638,2.814c0.515,0.803,1.393,1.166,2.506,1.166
					c5.494,0,16.482-8.359,16.521-8.4c0.157-0.119,0.317-0.16,0.479-0.16c0.517,0,0.955,0.482,0.955,0.965
					c0,0.2-0.12,0.4-0.32,0.563c-0.081,0.043-10.788,7.838-17.315,7.838c-1.709,0-3.146-0.521-4.021-1.89
					c-0.756-1.126-1.038-2.329-1.038-3.495c0-2.251,1.117-4.381,2.434-5.949c0.716-0.842,1.513-1.486,2.229-1.889
					c0.56-0.32,1.073-0.48,1.593-0.48c0.276,0,0.557,0.04,0.797,0.16c0.559,0.242,0.955,0.764,1.032,1.528
					C-220.43,583.313-220.391,583.434-220.391,583.594 M-222.818,583.594c0-0.079-0.039-0.12-0.12-0.12
					c-0.797,0.12-1.552,1.608-3.383,4.021C-223.775,585.282-222.818,583.956-222.818,583.594"/>
			</g>
		</g>
	</g>
	<g>
		<g>
			<g>
				<defs>
					<rect id="SVGID_9_" x="-597.5" y="-12" width="1366" height="768"/>
				</defs>
				<clipPath id="SVGID_10_">
					<use xlink:href="#SVGID_9_"  overflow="visible"/>
				</clipPath>
				<path clip-path="url(#SVGID_10_)" fill="#B2B2B2" d="M-200.247,579.979c0-0.239-0.081-0.399-0.318-0.399
					c-0.201,0-0.479,0.081-0.837,0.28c-0.795,0.399-2.188,1.647-3.423,3.297c-0.835,1.124-1.155,2.169-1.155,3.174
					c0,2.614,2.352,4.98,4.259,8.117c3.663-2.651,6.811-4.621,10.869-6.631c2.312-1.166,5.333-2.651,8.081-3.657
					c0.916,0.081,1.395,0.845,1.395,1.565c0,0.443-0.199,0.887-0.599,1.125c-2.751,0.322-5.175,1.406-7.441,2.532
					c-4.104,2.009-7.923,3.736-11.625,6.47c0.716,1.325,1.036,2.896,1.036,4.464c0,6.024-4.505,12.854-9.832,12.854
					c-0.521,0-1.036-0.078-1.556-0.201c-1.592-0.357-2.229-1.928-2.229-3.536c0-0.602,0.122-1.202,0.282-1.769
					c0.835-2.691,4.178-7.352,10.902-12.455c-1.511-2.573-5.609-5.827-5.609-9.604c0-1.127,0.356-2.291,1.272-3.537
					c1.472-2.014,3.781-3.218,4.657-3.657c0.916-0.401,1.632-0.563,2.188-0.563c1.075,0,1.554,0.604,1.674,1.568
					c0.036,0.2,0.036,0.404,0.036,0.643c0,2.452-1.312,5.55-1.312,5.592c-0.319,0.438-0.837,0.602-1.354,0.602
					c-0.839,0-1.715-0.521-1.715-1.407c0-0.122,0-0.238,0.041-0.359C-202.556,584.438-200.247,581.104-200.247,579.979
					 M-211.831,608.146c-0.12,0.359-0.199,0.804-0.199,1.204c0,0.646,0.238,1.246,0.994,1.446c0.356,0.121,0.717,0.16,1.117,0.16
					c4.298,0,8.596-6.589,8.596-11.654c0-1.043-0.158-2.007-0.556-2.85C-207.89,601.116-211.075,605.776-211.831,608.146"/>
			</g>
		</g>
	</g>
	<g>
		<g>
			<g>
				<defs>
					<rect id="SVGID_11_" x="-597.5" y="-12" width="1366" height="768"/>
				</defs>
				<clipPath id="SVGID_12_">
					<use xlink:href="#SVGID_11_"  overflow="visible"/>
				</clipPath>
				<path clip-path="url(#SVGID_12_)" fill="#B2B2B2" d="M-181.856,591.471c0,0.848,0.239,1.527,0.793,1.892
					c0.202,0.157,0.521,0.197,0.918,0.197c4.659,0,22.294-7.675,22.294-7.675c0.318-0.241,0.597-0.322,0.872-0.322
					c0.718,0,1.234,0.563,1.234,0.968c0,0.081,0,0.157-0.078,0.239c-0.041,0-18.392,8.078-25.038,8.078
					c-0.995,0-1.752-0.162-2.114-0.6c-1.11-0.729-1.51-2.095-1.51-3.619c0-2.814,1.354-6.229,2.071-7.476
					c0.314-0.688,0.876-0.967,1.472-0.967c0.836,0,1.671,0.604,1.671,1.445c0,0.12,0,0.241-0.037,0.36
					C-179.308,583.995-181.856,588.658-181.856,591.471 M-177.041,576.04c0,0.279-0.039,0.562-0.159,0.845
					c-0.278,0.842-0.954,1.405-1.591,1.405c-0.124,0-0.241,0-0.359-0.04c-0.519-0.201-0.839-0.764-0.839-1.446
					c0-0.279,0.042-0.563,0.16-0.845c0.32-0.845,0.994-1.407,1.634-1.407c0.12,0,0.197,0,0.319,0.042
					C-177.36,574.792-177.041,575.357-177.041,576.04"/>
			</g>
		</g>
	</g>
	<g>
		<g>
			<g>
				<defs>
					<rect id="SVGID_13_" x="-597.5" y="-12" width="1366" height="768"/>
				</defs>
				<clipPath id="SVGID_14_">
					<use xlink:href="#SVGID_13_"  overflow="visible"/>
				</clipPath>
				<path clip-path="url(#SVGID_14_)" fill="#B2B2B2" d="M-150.211,586.327c0-0.202-0.041-0.524-0.199-0.805
					c-0.557,0.603-1.153,1.243-1.751,1.89c-2.826,3.136-5.774,6.389-7.688,6.99c-0.354,0.123-0.676,0.162-0.95,0.162
					c-0.319,0-0.6-0.081-0.839-0.199c-0.558-0.283-0.797-0.728-0.797-1.247c0-0.241,0.041-0.482,0.12-0.724
					c0.119-0.522,0.479-1.164,0.916-1.893c1.831-2.771,5.893-6.71,8.438-7.153c0.478-0.077,0.876-0.077,1.23-0.077
					c0.361,0,0.682,0,0.957,0.077c1.951-2.007,3.663-3.531,4.938-3.531c0.16,0,0.275,0.039,0.438,0.081
					c0.797,0.276,1.273,1.124,1.273,2.729c0,0.604-0.079,1.365-0.241,2.25c-0.313,2.009-0.633,3.534-1.31,6.188
					c-0.081,0.278-0.561,1.809-0.641,2.131c3.464-4.662,13.936-8.563,17.274-8.563c0.201,0,0.359,0,0.521,0.039
					c0.479,0.161,0.636,0.36,0.636,0.604c0,0.279-0.274,0.644-0.636,1.004c-8.721,0.321-16.278,5.226-18.791,10.81
					c-1.591,5.627-4.496,14.106-6.368,19.089c-0.478,1.365-4.182,11.373-6.486,11.373c-0.079,0-0.199,0-0.278-0.041
					c-1.074-0.359-1.393-1.524-1.393-2.771c0-1.326,0.354-2.732,0.517-3.293c0.637-2.493,1.752-5.627,3.229-9.046
					c2.026-4.618,6.049-12.575,9.112-16.837c0.477-1.688,1.074-2.691,1.473-4.262c0.679-2.608,1.193-4.979,1.554-6.949
					c0.239-1.405,0.354-2.212,0.354-2.612c0-0.2-0.033-0.319-0.074-0.319h-0.12c-0.56,0-1.873,1.162-3.423,2.813
					c0.517,0.645,0.634,1.486,0.634,2.131c0,0.521-0.079,0.884-0.079,0.884l-1.592-0.604
					C-150.252,586.646-150.211,586.527-150.211,586.327 M-150.609,602.2c-1.672,2.894-4.103,8.357-5.374,11.253
					c-1.433,3.333-2.548,6.469-3.185,8.881c-0.438,1.606-0.681,2.813-0.681,3.455v0.12c0.762-0.686,3.229-5.104,5.3-10.649
					C-153.317,611.964-151.764,605.979-150.609,602.2 M-159.048,591.591c3.224-1.646,5.491-4.179,6.966-6.309
					C-153.834,586.286-157.814,590.104-159.048,591.591"/>
			</g>
		</g>
	</g>
	<g>
		<g>
			<g>
				<defs>
					<rect id="SVGID_15_" x="-597.5" y="-12" width="1366" height="768"/>
				</defs>
				<clipPath id="SVGID_16_">
					<use xlink:href="#SVGID_15_"  overflow="visible"/>
				</clipPath>
				<path clip-path="url(#SVGID_16_)" fill="#B2B2B2" d="M-128.278,590.788c2.229-2.935,4.499-5.467,6.25-5.467
					c0.795,0,1.472,0.481,1.991,1.605c1.753,4.06,3.857,5.626,6.287,5.626c3.146,0,6.89-2.69,11.146-5.827
					c0.16-0.197,0.357-0.237,0.52-0.237c0.396,0,0.756,0.399,0.756,0.762c0,0.204-0.118,0.402-0.357,0.524
					c-3.183,2.528-7.963,6.146-12.3,6.146c-2.708,0-5.256-1.405-7.087-5.505c-0.118-0.36-0.318-0.522-0.558-0.522
					c-2.027,0-7.885,8.279-7.961,9.122c-0.239,0.522-0.995,0.808-1.638,0.808c-0.552,0-1.031-0.243-1.031-0.767v-0.16l3.862-15.594
					c0.197-0.804,0.795-1.164,1.394-1.164c0.718,0,1.435,0.522,1.435,1.446v0.081L-128.278,590.788z"/>
			</g>
		</g>
	</g>
	<g>
		<g>
			<g>
				<defs>
					<rect id="SVGID_17_" x="-597.5" y="-12" width="1366" height="768"/>
				</defs>
				<clipPath id="SVGID_18_">
					<use xlink:href="#SVGID_17_"  overflow="visible"/>
				</clipPath>
				<path clip-path="url(#SVGID_18_)" fill="#B2B2B2" d="M-271.899,559.441c0.239-0.645,0.521-1.084,0.718-1.324
					c0.318-0.402,0.875-0.563,1.434-0.563c0.677,0,1.354,0.279,1.553,0.726c0.081,0.197,0.119,0.398,0.119,0.724
					c0,0.159,0,0.321-0.038,0.522c-0.797,4.616-3.902,12.896-5.295,20.375c6.646-17.08,16.042-36.449,27.427-37.136h0.56
					c6.406,0,8.039,7.354,8.039,14.789c0,5.345-0.836,10.729-1.353,13.422c-1.354,7.032-3.623,14.587-6.569,21.657
					c10.151-4.419,18.11-7.271,18.191-7.271c0.24-0.038,0.438-0.079,0.597-0.079c0.6,0,0.836,0.281,0.836,0.604
					c0,0.401-0.396,0.925-0.954,1.125c-0.076,0.04-8.598,2.491-19.387,7.153c-0.477,1.045-1.153,2.653-1.671,3.657
					c-8.679,17.761-23.129,25.033-30.771,25.033c-3.104,0-5.057-1.203-5.057-3.373c0-4.744,9.193-14.107,36.066-25.924
					c3.263-7.393,5.688-15.43,7.124-22.902c0.355-1.771,0.875-6.312,0.875-11.131c0-7.194-1.153-14.949-5.813-14.949h-0.234
					c-12.7,0.763-23.328,26.644-29.262,44.523c-0.118,0.644-0.677,2.01-0.796,2.611c-1.393,6.745-3.704,11.613-4.539,12.94
					c-0.157,0.238-0.354,0.438-0.558,0.479c-0.117,0.042-0.198,0.042-0.318,0.042c-0.438,0-0.675-0.481-0.675-1.445
					c0-0.767,0.158-1.852,0.479-3.177c0.598-2.371,1.553-5.748,2.823-9.726c0.199-0.646,0.399-1.245,0.601-1.927
					c0.874-4.305,1.791-9.047,2.628-13.587v-1.084C-275.123,566.557-272.775,561.613-271.899,559.441 M-248.373,595.046
					c-24.879,10.931-33.359,19.29-33.359,23.313c0,1.727,1.512,2.608,3.941,2.608c6.688,0,20.38-6.951,28.66-23.829
					C-248.89,596.654-248.612,595.53-248.373,595.046"/>
			</g>
		</g>
	</g>
	<g>
		<g>
			<g>
				<defs>
					<rect id="SVGID_19_" x="-597.5" y="-12" width="1366" height="768"/>
				</defs>
				<clipPath id="SVGID_20_">
					<use xlink:href="#SVGID_19_"  overflow="visible"/>
				</clipPath>
				<path clip-path="url(#SVGID_20_)" fill="#B2B2B2" d="M-220.351,583.594c0,3.376-5.375,5.547-6.485,5.988
					c0,0.241-0.04,0.521-0.04,0.803c0,0.966,0.155,2.09,0.638,2.814c0.515,0.803,1.393,1.166,2.506,1.166
					c5.494,0,16.482-8.359,16.521-8.4c0.157-0.119,0.317-0.16,0.478-0.16c0.518,0,0.953,0.482,0.953,0.965
					c0,0.2-0.116,0.4-0.318,0.563c-0.079,0.043-10.786,7.838-17.313,7.838c-1.711,0-3.146-0.521-4.021-1.89
					c-0.756-1.126-1.038-2.329-1.038-3.495c0-2.251,1.117-4.381,2.434-5.949c0.716-0.842,1.513-1.486,2.229-1.889
					c0.558-0.32,1.073-0.48,1.593-0.48c0.276,0,0.557,0.04,0.797,0.16c0.559,0.242,0.955,0.764,1.032,1.528
					C-220.39,583.313-220.351,583.434-220.351,583.594 M-222.778,583.594c0-0.079-0.039-0.12-0.12-0.12
					c-0.797,0.12-1.552,1.608-3.383,4.021C-223.735,585.282-222.778,583.956-222.778,583.594"/>
			</g>
		</g>
	</g>
	<g>
		<g>
			<g>
				<defs>
					<rect id="SVGID_21_" x="-597.5" y="-12" width="1366" height="768"/>
				</defs>
				<clipPath id="SVGID_22_">
					<use xlink:href="#SVGID_21_"  overflow="visible"/>
				</clipPath>
				<path clip-path="url(#SVGID_22_)" fill="#B2B2B2" d="M-200.207,579.979c0-0.239-0.081-0.399-0.318-0.399
					c-0.201,0-0.479,0.081-0.837,0.28c-0.795,0.399-2.19,1.647-3.423,3.297c-0.835,1.124-1.155,2.169-1.155,3.174
					c0,2.614,2.352,4.98,4.259,8.117c3.663-2.651,6.811-4.621,10.865-6.631c2.313-1.166,5.337-2.651,8.085-3.657
					c0.916,0.081,1.395,0.845,1.395,1.565c0,0.443-0.199,0.887-0.599,1.125c-2.751,0.322-5.175,1.406-7.441,2.532
					c-4.104,2.009-7.924,3.736-11.625,6.47c0.716,1.325,1.036,2.896,1.036,4.464c0,6.024-4.505,12.854-9.832,12.854
					c-0.521,0-1.036-0.078-1.556-0.201c-1.593-0.357-2.229-1.928-2.229-3.536c0-0.602,0.122-1.202,0.279-1.769
					c0.838-2.691,4.181-7.352,10.905-12.455c-1.513-2.573-5.609-5.827-5.609-9.604c0-1.127,0.356-2.291,1.271-3.537
					c1.474-2.014,3.783-3.218,4.659-3.657c0.916-0.401,1.632-0.563,2.188-0.563c1.075,0,1.554,0.604,1.674,1.568
					c0.036,0.2,0.036,0.404,0.036,0.643c0,2.452-1.312,5.55-1.312,5.592c-0.319,0.438-0.838,0.602-1.354,0.602
					c-0.837,0-1.713-0.521-1.713-1.407c0-0.122,0-0.238,0.041-0.359C-202.516,584.438-200.207,581.104-200.207,579.979
					 M-211.791,608.146c-0.12,0.359-0.199,0.804-0.199,1.204c0,0.646,0.238,1.246,0.994,1.446c0.356,0.121,0.717,0.16,1.117,0.16
					c4.298,0,8.596-6.589,8.596-11.654c0-1.043-0.158-2.007-0.556-2.85C-207.85,601.116-211.035,605.776-211.791,608.146"/>
			</g>
		</g>
	</g>
	<g>
		<g>
			<g>
				<defs>
					<rect id="SVGID_23_" x="-597.5" y="-12" width="1366" height="768"/>
				</defs>
				<clipPath id="SVGID_24_">
					<use xlink:href="#SVGID_23_"  overflow="visible"/>
				</clipPath>
				<path clip-path="url(#SVGID_24_)" fill="#B2B2B2" d="M-181.816,591.471c0,0.848,0.239,1.527,0.793,1.892
					c0.202,0.157,0.521,0.197,0.918,0.197c4.659,0,22.294-7.675,22.294-7.675c0.318-0.241,0.597-0.322,0.872-0.322
					c0.718,0,1.234,0.563,1.234,0.968c0,0.081,0,0.157-0.078,0.239c-0.041,0-18.392,8.078-25.038,8.078
					c-0.995,0-1.752-0.162-2.114-0.6c-1.11-0.729-1.51-2.095-1.51-3.619c0-2.814,1.354-6.229,2.069-7.476
					c0.316-0.688,0.878-0.967,1.474-0.967c0.836,0,1.671,0.604,1.671,1.445c0,0.12,0,0.241-0.037,0.36
					C-179.269,583.995-181.816,588.658-181.816,591.471 M-177.001,576.04c0,0.279-0.039,0.562-0.159,0.845
					c-0.278,0.842-0.954,1.405-1.591,1.405c-0.124,0-0.241,0-0.359-0.04c-0.519-0.201-0.839-0.764-0.839-1.446
					c0-0.279,0.041-0.563,0.16-0.845c0.317-0.845,0.994-1.407,1.634-1.407c0.12,0,0.197,0,0.318,0.042
					C-177.32,574.792-177.001,575.357-177.001,576.04"/>
			</g>
		</g>
	</g>
	<g>
		<g>
			<g>
				<defs>
					<rect id="SVGID_25_" x="-597.5" y="-12" width="1366" height="768"/>
				</defs>
				<clipPath id="SVGID_26_">
					<use xlink:href="#SVGID_25_"  overflow="visible"/>
				</clipPath>
				<path clip-path="url(#SVGID_26_)" fill="#B2B2B2" d="M-150.172,586.327c0-0.202-0.041-0.524-0.199-0.805
					c-0.56,0.603-1.153,1.243-1.751,1.89c-2.826,3.136-5.774,6.389-7.688,6.99c-0.354,0.123-0.676,0.162-0.953,0.162
					c-0.316,0-0.597-0.081-0.836-0.199c-0.558-0.283-0.797-0.728-0.797-1.247c0-0.241,0.041-0.482,0.12-0.724
					c0.119-0.522,0.477-1.164,0.916-1.893c1.831-2.771,5.893-6.71,8.438-7.153c0.478-0.077,0.876-0.077,1.23-0.077
					c0.361,0,0.682,0,0.957,0.077c1.951-2.007,3.663-3.531,4.938-3.531c0.158,0,0.275,0.039,0.438,0.081
					c0.797,0.276,1.273,1.124,1.273,2.729c0,0.604-0.079,1.365-0.241,2.25c-0.316,2.009-0.635,3.534-1.312,6.188
					c-0.079,0.278-0.56,1.809-0.639,2.131c3.464-4.662,13.936-8.563,17.274-8.563c0.201,0,0.358,0,0.521,0.039
					c0.479,0.161,0.634,0.36,0.634,0.604c0,0.279-0.274,0.644-0.634,1.004c-8.721,0.321-16.278,5.226-18.791,10.81
					c-1.591,5.627-4.496,14.106-6.369,19.089c-0.477,1.365-4.181,11.373-6.485,11.373c-0.079,0-0.199,0-0.278-0.041
					c-1.076-0.359-1.396-1.524-1.396-2.771c0-1.326,0.358-2.732,0.521-3.293c0.637-2.493,1.752-5.627,3.224-9.046
					c2.031-4.618,6.054-12.575,9.117-16.837c0.477-1.688,1.074-2.691,1.473-4.262c0.679-2.608,1.193-4.979,1.554-6.949
					c0.239-1.405,0.354-2.212,0.354-2.612c0-0.2-0.033-0.319-0.074-0.319h-0.12c-0.56,0-1.873,1.162-3.426,2.813
					c0.52,0.645,0.637,1.486,0.637,2.131c0,0.521-0.079,0.884-0.079,0.884l-1.592-0.604
					C-150.213,586.646-150.172,586.527-150.172,586.327 M-150.571,602.2c-1.671,2.894-4.102,8.357-5.373,11.253
					c-1.433,3.333-2.548,6.469-3.185,8.881c-0.438,1.606-0.681,2.813-0.681,3.455v0.12c0.762-0.686,3.229-5.104,5.297-10.649
					C-153.278,611.964-151.725,605.979-150.571,602.2 M-159.009,591.591c3.224-1.646,5.491-4.179,6.966-6.309
					C-153.795,586.286-157.775,590.104-159.009,591.591"/>
			</g>
		</g>
	</g>
	<g>
		<g>
			<g>
				<defs>
					<rect id="SVGID_27_" x="-597.5" y="-12" width="1366" height="768"/>
				</defs>
				<clipPath id="SVGID_28_">
					<use xlink:href="#SVGID_27_"  overflow="visible"/>
				</clipPath>
				<path clip-path="url(#SVGID_28_)" fill="#B2B2B2" d="M-128.239,590.788c2.228-2.935,4.497-5.467,6.25-5.467
					c0.795,0,1.472,0.481,1.991,1.605c1.753,4.06,3.857,5.626,6.287,5.626c3.146,0,6.89-2.69,11.146-5.827
					c0.16-0.197,0.357-0.237,0.52-0.237c0.396,0,0.756,0.399,0.756,0.762c0,0.204-0.118,0.402-0.357,0.524
					c-3.183,2.528-7.963,6.146-12.3,6.146c-2.708,0-5.256-1.405-7.087-5.505c-0.118-0.36-0.318-0.522-0.558-0.522
					c-2.027,0-7.885,8.279-7.964,9.122c-0.236,0.522-0.992,0.808-1.635,0.808c-0.552,0-1.033-0.243-1.033-0.767v-0.16l3.864-15.594
					c0.197-0.804,0.795-1.164,1.394-1.164c0.718,0,1.435,0.522,1.435,1.446v0.081L-128.239,590.788z"/>
			</g>
		</g>
	</g>
	<g>
		<g>
			<g>
				<defs>
					<rect id="SVGID_29_" x="-597.5" y="-12" width="1366" height="768"/>
				</defs>
				<clipPath id="SVGID_30_">
					<use xlink:href="#SVGID_29_"  overflow="visible"/>
				</clipPath>
				<path clip-path="url(#SVGID_30_)" fill="#FFFFFF" d="M-166.764,266.381c4.259-7.207,6.722-13.352,8.181-17.615
					c1.29-3.76,1.188-3.472,4.404-14.822c1.665-5.875,3.606-11.68,5.034-17.615c2.443-10.165,10.042-25.444,32.715-47.817
					c-4.285,3.325-21.277,15.698-45.928,14.471c-24.169-1.202-39.662-14.682-43.708-18.436c-5.61,4.854-22.021,17.726-46.264,19.065
					c-25.787,1.424-44.129-11.1-51.598-16.358c-14.104-9.938-22.234-21.75-26.425-28.942c6.338,3.023,15.777,6.995,27.686,10.066
					c13.38,3.448,35.175,8.802,61.028,2.515c8.328-2.024,21.509-6.333,35.864-16.357c14.624,9.704,27.855,13.809,36.493,15.73
					c22.516,5.008,41.385,1.328,57.885-1.888c13.236-2.581,23.979-6.048,31.457-8.809c-13.283,16.123-19.788,30.827-23.274,41.528
					c-6.896,21.134-2.612,28.452-11.955,43.411c-2.105,3.365-8.254,13.291-30.83,28.94
					C-151.141,257.014-158.125,261.568-166.764,266.381"/>
			</g>
		</g>
	</g>
	<g>
		<g>
			<g>
				<defs>
					<rect id="SVGID_31_" x="-597.5" y="-12" width="1366" height="768"/>
				</defs>
				<clipPath id="SVGID_32_">
					<use xlink:href="#SVGID_31_"  overflow="visible"/>
				</clipPath>
				<path clip-path="url(#SVGID_32_)" fill="#FFFFFF" d="M-175.713,245.294c-0.724,2.595-1.512,5.453-1.494,5.459
					c0.007,0.001,0.421-1.401,0.754-2.604c0.491-1.787,1.009-3.926,2.81-11.289c1.351-5.506,2.92-10.943,4.077-16.512
					c1.981-9.529,8.134-23.85,26.485-44.824c-3.468,3.118-17.226,14.716-37.171,13.572c-19.56-1.123-32.095-13.754-35.363-17.27
					c-4.545,4.551-17.827,16.618-37.446,17.877c-20.868,1.341-35.707-10.394-41.747-15.323c-11.413-9.312-17.993-20.378-21.38-27.12
					c5.128,2.833,12.769,6.554,22.401,9.43c10.826,3.23,28.463,8.244,49.386,2.347c6.742-1.9,17.406-5.941,29.027-15.339
					c11.832,9.095,22.54,12.934,29.526,14.736c18.223,4.69,33.489,1.238,46.844-1.781c10.712-2.422,19.403-5.672,25.461-8.261
					c-10.754,15.112-16.022,28.895-18.851,38.923c-5.58,19.81-2.112,26.669-9.681,40.691c-1.704,3.154-6.683,12.458-24.953,27.135
					c-2.368,1.901-3.288,3.971-4.734,3.686C-174.581,258.27-175.419,250.705-175.713,245.294"/>
			</g>
		</g>
	</g>
	<g>
		<g>
			<g>
				<defs>
					<rect id="SVGID_33_" x="-597.5" y="-12" width="1366" height="768"/>
				</defs>
				<clipPath id="SVGID_34_">
					<use xlink:href="#SVGID_33_"  overflow="visible"/>
				</clipPath>
				<path clip-path="url(#SVGID_34_)" fill="#1D1D1B" d="M-169.179,262.996c3.987-6.756,6.299-12.514,7.667-16.512
					c1.207-3.523,1.111-3.252,4.132-13.889c1.562-5.511,3.378-10.947,4.719-16.516c2.291-9.529,9.413-23.847,30.664-44.816
					c-4.021,3.117-19.947,14.713-43.05,13.563c-22.65-1.127-37.176-13.76-40.969-17.278c-5.256,4.548-20.636,16.612-43.358,17.867
					c-24.169,1.336-41.355-10.401-48.356-15.332c-13.219-9.315-20.841-20.384-24.767-27.125c5.938,2.833,14.789,6.557,25.943,9.435
					c12.54,3.232,32.971,8.25,57.201,2.358c7.812-1.898,20.156-5.937,33.613-15.331c13.708,9.094,26.11,12.94,34.206,14.743
					c21.102,4.693,38.787,1.244,54.25-1.77c12.406-2.421,22.472-5.667,29.484-8.258c-12.451,15.111-18.553,28.894-21.817,38.921
					c-6.462,19.809-2.45,26.667-11.206,40.69c-1.97,3.151-7.736,12.455-28.896,27.126
					C-154.537,254.218-161.083,258.484-169.179,262.996"/>
			</g>
		</g>
	</g>
	<g>
		<g>
			<g>
				<defs>
					<rect id="SVGID_35_" x="-597.5" y="-12" width="1366" height="768"/>
				</defs>
				<clipPath id="SVGID_36_">
					<use xlink:href="#SVGID_35_"  overflow="visible"/>
				</clipPath>
				<rect x="-149.726" y="462.895" clip-path="url(#SVGID_36_)" fill="#E30613" width="3.729" height="3.729"/>
			</g>
		</g>
	</g>
	<g>
		<g>
			<g>
				<defs>
					<rect id="SVGID_37_" x="-597.5" y="-12" width="1366" height="768"/>
				</defs>
				<clipPath id="SVGID_38_">
					<use xlink:href="#SVGID_37_"  overflow="visible"/>
				</clipPath>
				
					<rect x="-149.726" y="462.895" clip-path="url(#SVGID_38_)" fill="none" stroke="#E30613" stroke-width="5" stroke-miterlimit="10" width="3.729" height="3.729"/>
			</g>
		</g>
	</g>
	<g>
		<g>
			<g>
				<defs>
					<polygon id="SVGID_39_" points="-797.577,442.767 167.368,-497.823 710.935,29.939 -254.01,970.519 					"/>
				</defs>
				<clipPath id="SVGID_40_">
					<use xlink:href="#SVGID_39_"  overflow="visible"/>
				</clipPath>
				
					<rect x="-149.711" y="462.913" transform="matrix(-0.7074 -0.7068 0.7068 -0.7074 -580.9529 689.0439)" clip-path="url(#SVGID_40_)" fill="#E30613" width="3.732" height="3.732"/>
			</g>
		</g>
	</g>
	<g>
		<g>
			<g>
				<defs>
					<polygon id="SVGID_41_" points="-797.577,442.767 167.368,-497.823 710.935,29.939 -254.01,970.519 					"/>
				</defs>
				<clipPath id="SVGID_42_">
					<use xlink:href="#SVGID_41_"  overflow="visible"/>
				</clipPath>
				
					<rect x="-149.711" y="462.913" transform="matrix(-0.7074 -0.7068 0.7068 -0.7074 -580.9529 689.0439)" clip-path="url(#SVGID_42_)" fill="none" stroke="#E30613" stroke-width="5" stroke-miterlimit="10" width="3.732" height="3.732"/>
			</g>
		</g>
	</g>
	<g>
		<g>
			<g>
				<defs>
					<rect id="SVGID_43_" x="-597.5" y="-12" width="1366" height="768"/>
				</defs>
				<clipPath id="SVGID_44_">
					<use xlink:href="#SVGID_43_"  overflow="visible"/>
				</clipPath>
				<path clip-path="url(#SVGID_44_)" fill="#FFFFFF" d="M-245.245,259.917c-4.245,7.214-6.699,13.36-8.155,17.63
					c-1.282,3.76-1.182,3.473-4.381,14.828c-1.657,5.878-3.589,11.684-5.007,17.625c-2.429,10.168-10.006,25.458-32.646,47.864
					c4.283-3.33,21.261-15.728,45.907-14.538c24.171,1.166,39.688,14.621,43.733,18.367c5.604-4.859,21.996-17.756,46.237-19.131
					c25.785-1.463,44.145,11.029,51.617,16.278c14.12,9.917,22.271,21.718,26.472,28.903c-6.349-3.018-15.786-6.977-27.7-10.023
					c-13.381-3.431-35.188-8.75-61.033-2.428c-8.326,2.038-21.496,6.366-35.839,16.413c-14.642-9.687-27.877-13.771-36.52-15.679
					c-22.521-4.975-41.387-1.268-57.882,1.978c-13.229,2.604-23.966,6.081-31.446,8.854c13.264-16.142,19.744-30.855,23.221-41.562
					c6.86-21.146,2.567-28.46,11.89-43.431c2.097-3.369,8.235-13.307,30.787-28.99
					C-260.853,269.309-253.876,264.744-245.245,259.917"/>
			</g>
		</g>
	</g>
	<g>
		<g>
			<g>
				<defs>
					<rect id="SVGID_45_" x="-597.5" y="-12" width="1366" height="768"/>
				</defs>
				<clipPath id="SVGID_46_">
					<use xlink:href="#SVGID_45_"  overflow="visible"/>
				</clipPath>
				<path clip-path="url(#SVGID_46_)" fill="#FFFFFF" d="M-234.777,275.532c-0.055,0.729-0.28,0.887-0.75,2.606
					c-0.492,1.785-1.005,3.928-2.795,11.287c-1.342,5.514-2.904,10.952-4.052,16.521c-1.967,9.531-8.1,23.859-26.419,44.861
					c3.466-3.121,17.203-14.744,37.148-13.627c19.561,1.092,32.114,13.702,35.392,17.217c4.536-4.558,17.803-16.646,37.42-17.934
					c20.863-1.372,35.72,10.34,41.771,15.26c11.424,9.295,18.021,20.354,21.419,27.09c-5.132-2.825-12.774-6.537-22.414-9.396
					c-10.832-3.213-28.476-8.201-49.392-2.272c-6.738,1.91-17.396,5.97-29.003,15.383c-11.845-9.073-22.562-12.899-29.549-14.688
					c-18.229-4.664-33.493-1.188-46.84,1.853c-10.71,2.437-19.396,5.699-25.448,8.301c10.729-15.131,15.978-28.921,18.788-38.953
					c5.553-19.818,2.079-26.673,9.622-40.706c1.694-3.157,6.663-12.469,24.913-27.17c1.778-1.435,2.813-3.767,4.738-3.705
					C-237.452,267.542-234.5,271.811-234.777,275.532"/>
			</g>
		</g>
	</g>
	<g>
		<g>
			<g>
				<defs>
					<rect id="SVGID_47_" x="-597.5" y="-12" width="1366" height="768"/>
				</defs>
				<clipPath id="SVGID_48_">
					<use xlink:href="#SVGID_47_"  overflow="visible"/>
				</clipPath>
				<path clip-path="url(#SVGID_48_)" fill="#1D1D1B" d="M-242.826,263.299c-3.979,6.764-6.28,12.521-7.646,16.521
					c-1.199,3.525-1.105,3.256-4.104,13.896c-1.553,5.513-3.363,10.951-4.693,16.521c-2.273,9.531-9.376,23.859-30.596,44.863
					c4.013-3.125,19.922-14.744,43.026-13.629c22.65,1.094,37.192,13.704,40.988,17.219c5.251-4.56,20.612-16.646,43.335-17.936
					c24.167-1.369,41.375,10.342,48.379,15.262c13.234,9.293,20.871,20.354,24.811,27.088c-5.945-2.826-14.797-6.537-25.962-9.396
					c-12.544-3.213-32.979-8.201-57.203-2.271c-7.804,1.91-20.148,5.967-33.59,15.383c-13.724-9.076-26.129-12.903-34.227-14.691
					c-21.108-4.665-38.791-1.189-54.25,1.85c-12.4,2.438-22.465,5.701-29.474,8.301c12.429-15.129,18.506-28.922,21.761-38.951
					c6.435-19.816,2.408-26.674,11.146-40.706c1.965-3.157,7.717-12.468,28.854-27.169
					C-257.455,272.102-250.914,267.823-242.826,263.299"/>
			</g>
		</g>
	</g>
	<g>
		<g>
			<g>
				<defs>
					<rect id="SVGID_49_" x="-597.5" y="-12" width="1366" height="768"/>
				</defs>
				<clipPath id="SVGID_50_">
					<use xlink:href="#SVGID_49_"  overflow="visible"/>
				</clipPath>
				<polygon clip-path="url(#SVGID_50_)" fill="#FF0000" points="193.668,230.186 162.866,205.275 193.668,180.372 224.488,205.275 
									"/>
			</g>
		</g>
	</g>
	<g>
		<g>
			<g>
				<defs>
					<rect id="SVGID_51_" x="-597.5" y="-12" width="1366" height="768"/>
				</defs>
				<clipPath id="SVGID_52_">
					<use xlink:href="#SVGID_51_"  overflow="visible"/>
				</clipPath>
				<polygon clip-path="url(#SVGID_52_)" fill="none" stroke="#C6C6C6" stroke-width="4" stroke-miterlimit="10" points="
					193.668,230.186 162.866,205.275 193.668,180.372 224.488,205.275 				"/>
			</g>
		</g>
	</g>
	<g>
		<g>
			<g>
				<defs>
					<rect id="SVGID_53_" x="-597.5" y="-12" width="1366" height="768"/>
				</defs>
				<clipPath id="SVGID_54_">
					<use xlink:href="#SVGID_53_"  overflow="visible"/>
				</clipPath>
				<polygon clip-path="url(#SVGID_54_)" fill="#E30613" points="193.668,230.186 162.872,205.275 193.668,180.372 224.488,205.275 
									"/>
			</g>
		</g>
	</g>
	<g>
		<g>
			<g>
				<defs>
					<rect id="SVGID_55_" x="-597.5" y="-12" width="1366" height="768"/>
				</defs>
				<clipPath id="SVGID_56_">
					<use xlink:href="#SVGID_55_"  overflow="visible"/>
				</clipPath>
				<polygon clip-path="url(#SVGID_56_)" fill="none" stroke="#E30613" stroke-width="5" stroke-miterlimit="10" points="
					193.668,230.186 162.872,205.275 193.668,180.372 224.488,205.275 				"/>
			</g>
		</g>
	</g>
	<g>
		<g>
			<g>
				<defs>
					<rect id="SVGID_57_" x="-597.5" y="-12" width="1366" height="768"/>
				</defs>
				<clipPath id="SVGID_58_">
					<use xlink:href="#SVGID_57_"  overflow="visible"/>
				</clipPath>
				
					<rect x="171.892" y="187.664" clip-path="url(#SVGID_58_)" fill="none" stroke="#E30613" stroke-width="5" stroke-miterlimit="10" width="43.566" height="35.223"/>
			</g>
		</g>
	</g>
	<g>
		<g>
			<g>
				<defs>
					<rect id="SVGID_59_" x="-597.5" y="-12" width="1366" height="768"/>
				</defs>
				<clipPath id="SVGID_60_">
					<use xlink:href="#SVGID_59_"  overflow="visible"/>
				</clipPath>
				<polygon clip-path="url(#SVGID_60_)" fill="#1D1D1B" points="181.934,527.4 214.108,486.883 214.108,486.614 184.771,486.614 
					184.771,478.338 228.987,478.338 228.987,484.205 197.262,524.372 197.262,524.65 229.455,524.65 229.455,532.924 
					181.934,532.924 				"/>
			</g>
		</g>
	</g>
	<g>
		<g>
			<g>
				<defs>
					<rect id="SVGID_61_" x="-597.5" y="-12" width="1366" height="768"/>
				</defs>
				<clipPath id="SVGID_62_">
					<use xlink:href="#SVGID_61_"  overflow="visible"/>
				</clipPath>
				<polygon clip-path="url(#SVGID_62_)" fill="#1D1D1B" points="274.075,508.709 250.373,508.709 250.373,524.722 276.875,524.722 
					276.875,532.924 238.877,532.924 238.877,478.338 275.489,478.338 275.489,486.542 250.373,486.542 250.373,500.575 
					274.075,500.575 				"/>
			</g>
		</g>
	</g>
	<g>
		<g>
			<g>
				<defs>
					<rect id="SVGID_63_" x="-597.5" y="-12" width="1366" height="768"/>
				</defs>
				<clipPath id="SVGID_64_">
					<use xlink:href="#SVGID_63_"  overflow="visible"/>
				</clipPath>
				<polygon clip-path="url(#SVGID_64_)" fill="#1D1D1B" points="286.936,478.338 298.431,478.338 298.431,524.557 324.296,524.557 
					324.296,532.924 286.936,532.924 				"/>
			</g>
		</g>
	</g>
	<g>
		<g>
			<g>
				<defs>
					<rect id="SVGID_65_" x="-597.5" y="-12" width="1366" height="768"/>
				</defs>
				<clipPath id="SVGID_66_">
					<use xlink:href="#SVGID_65_"  overflow="visible"/>
				</clipPath>
				<polygon clip-path="url(#SVGID_66_)" fill="#1D1D1B" points="336.297,478.338 347.793,478.338 347.793,524.557 373.656,524.557 
					373.656,532.924 336.297,532.924 				"/>
			</g>
		</g>
	</g>
	<g>
		<g>
			<g>
				<defs>
					<rect id="SVGID_67_" x="-597.5" y="-12" width="1366" height="768"/>
				</defs>
				<clipPath id="SVGID_68_">
					<use xlink:href="#SVGID_67_"  overflow="visible"/>
				</clipPath>
				<rect x="385.656" y="478.337" clip-path="url(#SVGID_68_)" fill="#1D1D1B" width="11.496" height="54.587"/>
			</g>
		</g>
	</g>
	<g>
		<g>
			<g>
				<defs>
					<rect id="SVGID_69_" x="-597.5" y="-12" width="1366" height="768"/>
				</defs>
				<clipPath id="SVGID_70_">
					<use xlink:href="#SVGID_69_"  overflow="visible"/>
				</clipPath>
				<path clip-path="url(#SVGID_70_)" fill="#1D1D1B" d="M460.751,530.434c-4.063,1.268-11.883,3.036-20.255,3.036
					c-10.609,0-18.71-2.313-24.646-7.271c-5.615-4.646-8.855-11.815-8.829-20.047c0.053-17.313,14.244-28.357,35.056-28.357
					c7.738,0,13.771,1.36,16.695,2.567l-2.549,8.024c-3.426-1.312-7.642-2.321-14.3-2.321c-13.392,0-22.851,6.889-22.851,19.568
					c0,12.423,8.813,19.74,21.839,19.74c4.155,0,7.214-0.469,8.683-1.085v-13.625h-11.074v-7.834h22.229L460.751,530.434
					L460.751,530.434z"/>
			</g>
		</g>
	</g>
	<g>
		<g>
			<g>
				<defs>
					<rect id="SVGID_71_" x="-597.5" y="-12" width="1366" height="768"/>
				</defs>
				<clipPath id="SVGID_72_">
					<use xlink:href="#SVGID_71_"  overflow="visible"/>
				</clipPath>
				<polygon clip-path="url(#SVGID_72_)" fill="#1D1D1B" points="503.346,508.709 479.644,508.709 479.644,524.722 506.145,524.722 
					506.145,532.924 468.148,532.924 468.148,478.338 504.761,478.338 504.761,486.542 479.644,486.542 479.644,500.575 
					503.346,500.575 				"/>
			</g>
		</g>
	</g>
	<g>
		<g>
			<g>
				<defs>
					<rect id="SVGID_73_" x="-597.5" y="-12" width="1366" height="768"/>
				</defs>
				<clipPath id="SVGID_74_">
					<use xlink:href="#SVGID_73_"  overflow="visible"/>
				</clipPath>
				<path clip-path="url(#SVGID_74_)" fill="#B2B2B2" d="M267.16,559.441c0.236-0.645,0.519-1.084,0.718-1.324
					c0.314-0.402,0.875-0.563,1.433-0.563c0.676,0,1.354,0.279,1.553,0.726c0.079,0.197,0.118,0.398,0.118,0.724
					c0,0.159,0,0.321-0.039,0.522c-0.796,4.616-3.898,12.896-5.295,20.375c6.647-17.08,16.042-36.449,27.431-37.136h0.558
					c6.408,0,8.04,7.354,8.04,14.789c0,5.345-0.835,10.729-1.354,13.422c-1.354,7.032-3.619,14.587-6.565,21.657
					c10.148-4.419,18.107-7.271,18.188-7.271c0.239-0.038,0.439-0.079,0.599-0.079c0.598,0,0.837,0.281,0.837,0.604
					c0,0.401-0.396,0.925-0.954,1.125c-0.079,0.04-8.602,2.491-19.386,7.153c-0.479,1.045-1.155,2.653-1.672,3.657
					c-8.683,17.761-23.133,25.033-30.771,25.033c-3.104,0-5.057-1.203-5.057-3.373c0-4.744,9.191-14.107,36.063-25.924
					c3.267-7.393,5.69-15.43,7.124-22.902c0.358-1.771,0.875-6.312,0.875-11.131c0-7.194-1.15-14.949-5.812-14.949h-0.237
					c-12.699,0.763-23.328,26.644-29.259,44.523c-0.121,0.644-0.677,2.01-0.797,2.611c-1.396,6.745-3.703,11.613-4.538,12.94
					c-0.16,0.238-0.357,0.438-0.559,0.479c-0.117,0.042-0.198,0.042-0.317,0.042c-0.438,0-0.676-0.481-0.676-1.445
					c0-0.767,0.155-1.852,0.477-3.177c0.599-2.371,1.553-5.748,2.826-9.726c0.199-0.646,0.396-1.245,0.598-1.927
					c0.874-4.305,1.791-9.047,2.628-13.587v-1.084C263.937,566.557,266.284,561.613,267.16,559.441 M290.687,595.046
					c-24.879,10.931-33.356,19.29-33.356,23.313c0,1.727,1.513,2.608,3.938,2.608c6.688,0,20.381-6.951,28.66-23.829
					C290.17,596.654,290.447,595.53,290.687,595.046"/>
			</g>
		</g>
	</g>
	<g>
		<g>
			<g>
				<defs>
					<rect id="SVGID_75_" x="-597.5" y="-12" width="1366" height="768"/>
				</defs>
				<clipPath id="SVGID_76_">
					<use xlink:href="#SVGID_75_"  overflow="visible"/>
				</clipPath>
				<path clip-path="url(#SVGID_76_)" fill="#B2B2B2" d="M318.705,583.594c0,3.376-5.375,5.547-6.484,5.988
					c0,0.241-0.041,0.521-0.041,0.803c0,0.966,0.158,2.09,0.639,2.814c0.518,0.803,1.396,1.166,2.506,1.166
					c5.494,0,16.482-8.359,16.521-8.4c0.161-0.119,0.321-0.16,0.479-0.16c0.518,0,0.954,0.482,0.954,0.965
					c0,0.2-0.119,0.4-0.316,0.563c-0.081,0.043-10.788,7.838-17.317,7.838c-1.709,0-3.145-0.521-4.019-1.89
					c-0.759-1.126-1.037-2.329-1.037-3.495c0-2.251,1.113-4.381,2.43-5.949c0.716-0.842,1.513-1.486,2.23-1.889
					c0.558-0.32,1.069-0.48,1.592-0.48c0.274,0,0.556,0.04,0.795,0.16c0.559,0.242,0.956,0.764,1.035,1.528
					C318.669,583.313,318.705,583.434,318.705,583.594 M316.281,583.594c0-0.079-0.039-0.12-0.12-0.12
					c-0.796,0.12-1.553,1.608-3.383,4.021C315.323,585.282,316.281,583.956,316.281,583.594"/>
			</g>
		</g>
	</g>
	<g>
		<g>
			<g>
				<defs>
					<rect id="SVGID_77_" x="-597.5" y="-12" width="1366" height="768"/>
				</defs>
				<clipPath id="SVGID_78_">
					<use xlink:href="#SVGID_77_"  overflow="visible"/>
				</clipPath>
				<path clip-path="url(#SVGID_78_)" fill="#B2B2B2" d="M338.853,579.979c0-0.239-0.081-0.399-0.318-0.399
					c-0.198,0-0.479,0.081-0.837,0.28c-0.795,0.399-2.188,1.647-3.423,3.297c-0.835,1.124-1.155,2.169-1.155,3.174
					c0,2.614,2.353,4.98,4.263,8.117c3.663-2.651,6.808-4.621,10.866-6.631c2.311-1.166,5.333-2.651,8.08-3.657
					c0.916,0.081,1.396,0.845,1.396,1.565c0,0.443-0.199,0.887-0.597,1.125c-2.75,0.322-5.178,1.406-7.444,2.532
					c-4.103,2.009-7.922,3.736-11.624,6.47c0.716,1.325,1.036,2.896,1.036,4.464c0,6.024-4.503,12.854-9.833,12.854
					c-0.521,0-1.035-0.078-1.555-0.201c-1.593-0.357-2.229-1.928-2.229-3.536c0-0.602,0.121-1.202,0.281-1.769
					c0.835-2.691,4.179-7.352,10.903-12.455c-1.512-2.573-5.61-5.827-5.61-9.604c0-1.127,0.356-2.291,1.272-3.537
					c1.475-2.014,3.781-3.218,4.657-3.657c0.916-0.401,1.632-0.563,2.189-0.563c1.072,0,1.551,0.604,1.671,1.568
					c0.038,0.2,0.038,0.404,0.038,0.643c0,2.452-1.313,5.55-1.313,5.592c-0.315,0.438-0.837,0.602-1.353,0.602
					c-0.837,0-1.713-0.521-1.713-1.407c0-0.122,0-0.238,0.037-0.359C336.543,584.438,338.853,581.104,338.853,579.979
					 M327.269,608.146c-0.12,0.359-0.199,0.804-0.199,1.204c0,0.646,0.237,1.246,0.994,1.446c0.358,0.121,0.717,0.16,1.116,0.16
					c4.299,0,8.597-6.589,8.597-11.654c0-1.043-0.158-2.007-0.556-2.85C331.209,601.116,328.024,605.776,327.269,608.146"/>
			</g>
		</g>
	</g>
	<g>
		<g>
			<g>
				<defs>
					<rect id="SVGID_79_" x="-597.5" y="-12" width="1366" height="768"/>
				</defs>
				<clipPath id="SVGID_80_">
					<use xlink:href="#SVGID_79_"  overflow="visible"/>
				</clipPath>
				<path clip-path="url(#SVGID_80_)" fill="#B2B2B2" d="M357.24,591.471c0,0.848,0.239,1.527,0.793,1.892
					c0.203,0.157,0.521,0.197,0.918,0.197c4.659,0,22.295-7.675,22.295-7.675c0.318-0.241,0.597-0.322,0.871-0.322
					c0.722,0,1.235,0.563,1.235,0.968c0,0.081,0,0.157-0.079,0.239c-0.041,0-18.392,8.078-25.037,8.078
					c-0.996,0-1.752-0.162-2.114-0.6c-1.11-0.729-1.511-2.095-1.511-3.619c0-2.814,1.354-6.229,2.072-7.476
					c0.315-0.688,0.875-0.967,1.472-0.967c0.835,0,1.671,0.604,1.671,1.445c0,0.12,0,0.241-0.037,0.36
					C359.788,583.995,357.24,588.658,357.24,591.471 M362.058,576.04c0,0.279-0.039,0.562-0.158,0.845
					c-0.278,0.842-0.955,1.405-1.592,1.405c-0.123,0-0.241,0-0.358-0.04c-0.52-0.201-0.839-0.764-0.839-1.446
					c0-0.279,0.042-0.563,0.16-0.845c0.319-0.845,0.993-1.407,1.634-1.407c0.119,0,0.196,0,0.318,0.042
					C361.739,574.792,362.058,575.357,362.058,576.04"/>
			</g>
		</g>
	</g>
	<g>
		<g>
			<g>
				<defs>
					<rect id="SVGID_81_" x="-597.5" y="-12" width="1366" height="768"/>
				</defs>
				<clipPath id="SVGID_82_">
					<use xlink:href="#SVGID_81_"  overflow="visible"/>
				</clipPath>
				<path clip-path="url(#SVGID_82_)" fill="#B2B2B2" d="M388.888,586.327c0-0.202-0.041-0.524-0.199-0.805
					c-0.557,0.603-1.153,1.243-1.751,1.89c-2.826,3.136-5.773,6.389-7.686,6.99c-0.355,0.123-0.678,0.162-0.953,0.162
					c-0.318,0-0.599-0.081-0.835-0.199c-0.561-0.283-0.8-0.728-0.8-1.247c0-0.241,0.041-0.482,0.119-0.724
					c0.12-0.522,0.479-1.164,0.917-1.893c1.83-2.771,5.893-6.71,8.438-7.153c0.479-0.077,0.876-0.077,1.229-0.077
					c0.361,0,0.683,0,0.957,0.077c1.952-2.007,3.663-3.531,4.938-3.531c0.16,0,0.276,0.039,0.438,0.081
					c0.798,0.276,1.273,1.124,1.273,2.729c0,0.604-0.079,1.365-0.241,2.25c-0.313,2.009-0.633,3.534-1.31,6.188
					c-0.081,0.278-0.561,1.809-0.642,2.131c3.466-4.662,13.937-8.563,17.275-8.563c0.2,0,0.358,0,0.521,0.039
					c0.479,0.161,0.636,0.36,0.636,0.604c0,0.279-0.274,0.644-0.636,1.004c-8.721,0.321-16.278,5.226-18.79,10.81
					c-1.593,5.627-4.497,14.106-6.368,19.089c-0.479,1.365-4.183,11.373-6.487,11.373c-0.079,0-0.199,0-0.277-0.041
					c-1.075-0.359-1.394-1.524-1.394-2.771c0-1.326,0.354-2.732,0.518-3.293c0.638-2.493,1.751-5.627,3.228-9.046
					c2.027-4.618,6.05-12.575,9.112-16.837c0.478-1.688,1.075-2.691,1.474-4.262c0.679-2.608,1.192-4.979,1.554-6.949
					c0.239-1.405,0.355-2.212,0.355-2.612c0-0.2-0.035-0.319-0.075-0.319h-0.12c-0.56,0-1.873,1.162-3.424,2.813
					c0.518,0.645,0.635,1.486,0.635,2.131c0,0.521-0.079,0.884-0.079,0.884l-1.592-0.604
					C388.847,586.646,388.888,586.527,388.888,586.327 M388.49,602.2c-1.673,2.894-4.103,8.357-5.374,11.253
					c-1.434,3.333-2.549,6.469-3.186,8.881c-0.438,1.606-0.679,2.813-0.679,3.455v0.12c0.76-0.686,3.228-5.104,5.297-10.649
					C385.781,611.964,387.335,605.979,388.49,602.2 M380.051,591.591c3.224-1.646,5.494-4.179,6.966-6.309
					C385.265,586.286,381.282,590.104,380.051,591.591"/>
			</g>
		</g>
	</g>
	<g>
		<g>
			<g>
				<defs>
					<rect id="SVGID_83_" x="-597.5" y="-12" width="1366" height="768"/>
				</defs>
				<clipPath id="SVGID_84_">
					<use xlink:href="#SVGID_83_"  overflow="visible"/>
				</clipPath>
				<path clip-path="url(#SVGID_84_)" fill="#B2B2B2" d="M410.82,590.788c2.229-2.935,4.499-5.467,6.25-5.467
					c0.795,0,1.472,0.481,1.991,1.605c1.753,4.06,3.86,5.626,6.287,5.626c3.146,0,6.891-2.69,11.146-5.827
					c0.16-0.197,0.357-0.237,0.521-0.237c0.396,0,0.756,0.399,0.756,0.762c0,0.204-0.118,0.402-0.357,0.524
					c-3.183,2.528-7.963,6.146-12.299,6.146c-2.709,0-5.257-1.405-7.088-5.505c-0.117-0.36-0.318-0.522-0.559-0.522
					c-2.026,0-7.881,8.279-7.959,9.122c-0.24,0.522-0.996,0.808-1.64,0.808c-0.552,0-1.029-0.243-1.029-0.767v-0.16l3.861-15.594
					c0.196-0.804,0.794-1.164,1.394-1.164c0.718,0,1.435,0.522,1.435,1.446v0.081L410.82,590.788z"/>
			</g>
		</g>
	</g>
	<g>
		<g>
			<g>
				<defs>
					<rect id="SVGID_85_" x="-597.5" y="-12" width="1366" height="768"/>
				</defs>
				<clipPath id="SVGID_86_">
					<use xlink:href="#SVGID_85_"  overflow="visible"/>
				</clipPath>
				<path clip-path="url(#SVGID_86_)" fill="#B2B2B2" d="M267.199,559.441c0.236-0.645,0.52-1.084,0.718-1.324
					c0.315-0.402,0.876-0.563,1.432-0.563c0.677,0,1.354,0.279,1.553,0.726c0.081,0.197,0.119,0.398,0.119,0.724
					c0,0.159,0,0.321-0.038,0.522c-0.797,4.616-3.898,12.896-5.295,20.375c6.647-17.08,16.042-36.449,27.427-37.136h0.561
					c6.406,0,8.04,7.354,8.04,14.789c0,5.345-0.835,10.729-1.354,13.422c-1.354,7.032-3.623,14.587-6.565,21.657
					c10.147-4.419,18.106-7.271,18.188-7.271c0.239-0.038,0.438-0.079,0.598-0.079c0.6,0,0.839,0.281,0.839,0.604
					c0,0.401-0.397,0.925-0.955,1.125c-0.079,0.04-8.601,2.491-19.387,7.153c-0.479,1.045-1.153,2.653-1.674,3.657
					c-8.679,17.761-23.129,25.033-30.771,25.033c-3.104,0-5.053-1.203-5.053-3.373c0-4.744,9.189-14.107,36.063-25.924
					c3.267-7.393,5.69-15.43,7.124-22.902c0.358-1.771,0.876-6.312,0.876-11.131c0-7.194-1.15-14.949-5.812-14.949h-0.238
					c-12.699,0.763-23.328,26.644-29.258,44.523c-0.122,0.644-0.679,2.01-0.796,2.611c-1.396,6.745-3.705,11.613-4.54,12.94
					c-0.16,0.238-0.357,0.438-0.561,0.479c-0.114,0.042-0.194,0.042-0.315,0.042c-0.438,0-0.676-0.481-0.676-1.445
					c0-0.767,0.156-1.852,0.478-3.177c0.598-2.371,1.553-5.748,2.826-9.726c0.197-0.646,0.396-1.245,0.598-1.927
					c0.874-4.305,1.79-9.047,2.627-13.587v-1.084C263.976,566.557,266.324,561.613,267.199,559.441 M290.727,595.046
					c-24.88,10.931-33.356,19.29-33.356,23.313c0,1.727,1.513,2.608,3.938,2.608c6.688,0,20.38-6.951,28.659-23.829
					C290.209,596.654,290.487,595.53,290.727,595.046"/>
			</g>
		</g>
	</g>
	<g>
		<g>
			<g>
				<defs>
					<rect id="SVGID_87_" x="-597.5" y="-12" width="1366" height="768"/>
				</defs>
				<clipPath id="SVGID_88_">
					<use xlink:href="#SVGID_87_"  overflow="visible"/>
				</clipPath>
				<path clip-path="url(#SVGID_88_)" fill="#B2B2B2" d="M318.744,583.594c0,3.376-5.374,5.547-6.484,5.988
					c0,0.241-0.04,0.521-0.04,0.803c0,0.966,0.158,2.09,0.638,2.814c0.516,0.803,1.396,1.166,2.507,1.166
					c5.493,0,16.481-8.359,16.521-8.4c0.159-0.119,0.316-0.16,0.478-0.16c0.521,0,0.953,0.482,0.953,0.965
					c0,0.2-0.115,0.4-0.318,0.563c-0.076,0.043-10.782,7.838-17.313,7.838c-1.711,0-3.146-0.521-4.02-1.89
					c-0.758-1.126-1.036-2.329-1.036-3.495c0-2.251,1.114-4.381,2.431-5.949c0.716-0.842,1.513-1.486,2.229-1.889
					c0.559-0.32,1.073-0.48,1.595-0.48c0.275,0,0.556,0.04,0.796,0.16c0.559,0.242,0.956,0.764,1.035,1.528
					C318.709,583.313,318.744,583.434,318.744,583.594 M316.32,583.594c0-0.079-0.038-0.12-0.119-0.12
					c-0.797,0.12-1.553,1.608-3.384,4.021C315.364,585.282,316.32,583.956,316.32,583.594"/>
			</g>
		</g>
	</g>
	<g>
		<g>
			<g>
				<defs>
					<rect id="SVGID_89_" x="-597.5" y="-12" width="1366" height="768"/>
				</defs>
				<clipPath id="SVGID_90_">
					<use xlink:href="#SVGID_89_"  overflow="visible"/>
				</clipPath>
				<path clip-path="url(#SVGID_90_)" fill="#B2B2B2" d="M338.892,579.979c0-0.239-0.081-0.399-0.318-0.399
					c-0.2,0-0.479,0.081-0.837,0.28c-0.795,0.399-2.188,1.647-3.422,3.297c-0.836,1.124-1.155,2.169-1.155,3.174
					c0,2.614,2.352,4.98,4.262,8.117c3.66-2.651,6.808-4.621,10.861-6.631c2.313-1.166,5.337-2.651,8.085-3.657
					c0.916,0.081,1.396,0.845,1.396,1.565c0,0.443-0.198,0.887-0.599,1.125c-2.752,0.322-5.176,1.406-7.441,2.532
					c-4.104,2.009-7.923,3.736-11.625,6.47c0.716,1.325,1.036,2.896,1.036,4.464c0,6.024-4.502,12.854-9.832,12.854
					c-0.521,0-1.036-0.078-1.556-0.201c-1.594-0.357-2.229-1.928-2.229-3.536c0-0.602,0.122-1.202,0.282-1.769
					c0.835-2.691,4.178-7.352,10.901-12.455c-1.512-2.573-5.608-5.827-5.608-9.604c0-1.127,0.355-2.291,1.271-3.537
					c1.477-2.014,3.782-3.218,4.658-3.657c0.917-0.401,1.632-0.563,2.189-0.563c1.072,0,1.551,0.604,1.671,1.568
					c0.039,0.2,0.039,0.404,0.039,0.643c0,2.452-1.313,5.55-1.313,5.592c-0.317,0.438-0.837,0.602-1.353,0.602
					c-0.838,0-1.714-0.521-1.714-1.407c0-0.122,0-0.238,0.04-0.359C336.58,584.438,338.892,581.104,338.892,579.979
					 M327.308,608.146c-0.119,0.359-0.198,0.804-0.198,1.204c0,0.646,0.237,1.246,0.993,1.446c0.359,0.121,0.718,0.16,1.117,0.16
					c4.298,0,8.596-6.589,8.596-11.654c0-1.043-0.158-2.007-0.556-2.85C331.246,601.116,328.063,605.776,327.308,608.146"/>
			</g>
		</g>
	</g>
	<g>
		<g>
			<g>
				<defs>
					<rect id="SVGID_91_" x="-597.5" y="-12" width="1366" height="768"/>
				</defs>
				<clipPath id="SVGID_92_">
					<use xlink:href="#SVGID_91_"  overflow="visible"/>
				</clipPath>
				<path clip-path="url(#SVGID_92_)" fill="#B2B2B2" d="M357.281,591.471c0,0.848,0.238,1.527,0.793,1.892
					c0.201,0.157,0.521,0.197,0.918,0.197c4.658,0,22.293-7.675,22.293-7.675c0.318-0.241,0.598-0.322,0.873-0.322
					c0.72,0,1.233,0.563,1.233,0.968c0,0.081,0,0.157-0.078,0.239c-0.041,0-18.393,8.078-25.038,8.078
					c-0.994,0-1.752-0.162-2.114-0.6c-1.11-0.729-1.51-2.095-1.51-3.619c0-2.814,1.354-6.229,2.069-7.476
					c0.315-0.688,0.878-0.967,1.474-0.967c0.837,0,1.672,0.604,1.672,1.445c0,0.12,0,0.241-0.038,0.36
					C359.827,583.995,357.281,588.658,357.281,591.471 M362.098,576.04c0,0.279-0.039,0.562-0.159,0.845
					c-0.277,0.842-0.954,1.405-1.591,1.405c-0.124,0-0.241,0-0.359-0.04c-0.519-0.201-0.839-0.764-0.839-1.446
					c0-0.279,0.041-0.563,0.16-0.845c0.32-0.845,0.993-1.407,1.634-1.407c0.12,0,0.197,0,0.318,0.042
					C361.778,574.792,362.098,575.357,362.098,576.04"/>
			</g>
		</g>
	</g>
	<g>
		<g>
			<g>
				<defs>
					<rect id="SVGID_93_" x="-597.5" y="-12" width="1366" height="768"/>
				</defs>
				<clipPath id="SVGID_94_">
					<use xlink:href="#SVGID_93_"  overflow="visible"/>
				</clipPath>
				<path clip-path="url(#SVGID_94_)" fill="#B2B2B2" d="M388.927,586.327c0-0.202-0.04-0.524-0.198-0.805
					c-0.558,0.603-1.153,1.243-1.752,1.89c-2.826,3.136-5.773,6.389-7.688,6.99c-0.354,0.123-0.676,0.162-0.95,0.162
					c-0.318,0-0.6-0.081-0.836-0.199c-0.562-0.283-0.8-0.728-0.8-1.247c0-0.241,0.041-0.482,0.12-0.724
					c0.118-0.522,0.478-1.164,0.916-1.893c1.83-2.771,5.893-6.71,8.438-7.153c0.479-0.077,0.876-0.077,1.23-0.077
					c0.36,0,0.682,0,0.957,0.077c1.95-2.007,3.663-3.531,4.938-3.531c0.159,0,0.275,0.039,0.438,0.081
					c0.797,0.276,1.273,1.124,1.273,2.729c0,0.604-0.079,1.365-0.241,2.25c-0.314,2.009-0.635,3.534-1.311,6.188
					c-0.08,0.278-0.562,1.809-0.641,2.131c3.464-4.662,13.937-8.563,17.274-8.563c0.2,0,0.358,0,0.521,0.039
					c0.479,0.161,0.635,0.36,0.635,0.604c0,0.279-0.274,0.644-0.635,1.004c-8.722,0.321-16.278,5.226-18.791,10.81
					c-1.591,5.627-4.495,14.106-6.368,19.089c-0.479,1.365-4.182,11.373-6.486,11.373c-0.078,0-0.198,0-0.277-0.041
					c-1.076-0.359-1.396-1.524-1.396-2.771c0-1.326,0.357-2.732,0.52-3.293c0.638-2.493,1.752-5.627,3.227-9.046
					c2.029-4.618,6.053-12.575,9.115-16.837c0.478-1.688,1.073-2.691,1.473-4.262c0.679-2.608,1.193-4.979,1.555-6.949
					c0.239-1.405,0.354-2.212,0.354-2.612c0-0.2-0.034-0.319-0.075-0.319h-0.119c-0.561,0-1.873,1.162-3.424,2.813
					c0.517,0.645,0.635,1.486,0.635,2.131c0,0.521-0.079,0.884-0.079,0.884l-1.592-0.604
					C388.887,586.646,388.927,586.527,388.927,586.327 M388.527,602.2c-1.67,2.894-4.101,8.357-5.373,11.253
					c-1.433,3.333-2.547,6.469-3.184,8.881c-0.438,1.606-0.679,2.813-0.679,3.455v0.12c0.76-0.686,3.227-5.104,5.297-10.649
					C385.82,611.964,387.371,605.979,388.527,602.2 M380.09,591.591c3.224-1.646,5.494-4.179,6.966-6.309
					C385.305,586.286,381.323,590.104,380.09,591.591"/>
			</g>
		</g>
	</g>
	<g>
		<g>
			<g>
				<defs>
					<rect id="SVGID_95_" x="-597.5" y="-12" width="1366" height="768"/>
				</defs>
				<clipPath id="SVGID_96_">
					<use xlink:href="#SVGID_95_"  overflow="visible"/>
				</clipPath>
				<path clip-path="url(#SVGID_96_)" fill="#B2B2B2" d="M410.86,590.788c2.229-2.935,4.496-5.467,6.25-5.467
					c0.795,0,1.472,0.481,1.99,1.605c1.754,4.06,3.859,5.626,6.287,5.626c3.146,0,6.891-2.69,11.146-5.827
					c0.16-0.197,0.356-0.237,0.52-0.237c0.396,0,0.757,0.399,0.757,0.762c0,0.204-0.118,0.402-0.357,0.524
					c-3.184,2.528-7.963,6.146-12.3,6.146c-2.708,0-5.257-1.405-7.087-5.505c-0.118-0.36-0.318-0.522-0.558-0.522
					c-2.027,0-7.886,8.279-7.961,9.122c-0.24,0.522-0.996,0.808-1.639,0.808c-0.553,0-1.029-0.243-1.029-0.767v-0.16l3.86-15.594
					c0.197-0.804,0.795-1.164,1.394-1.164c0.718,0,1.436,0.522,1.436,1.446v0.081L410.86,590.788z"/>
			</g>
		</g>
	</g>
	<g>
		<g>
			<g>
				<defs>
					<rect id="SVGID_97_" x="-597.5" y="-12" width="1366" height="768"/>
				</defs>
				<clipPath id="SVGID_98_">
					<use xlink:href="#SVGID_97_"  overflow="visible"/>
				</clipPath>
				<path clip-path="url(#SVGID_98_)" fill="#FFFFFF" d="M241.061,208.605c5.271-7.23,8.328-13.393,10.146-17.673
					c1.603-3.77,1.479-3.482,5.467-14.868c2.079-5.897,4.478-11.716,6.25-17.676c3.036-10.195,12.457-25.527,40.569-47.969
					c-5.304,3.333-26.391,15.75-56.976,14.517c-29.977-1.206-49.21-14.728-54.227-18.495c-6.947,4.874-27.313,17.785-57.393,19.127
					c-31.988,1.427-54.758-11.137-64.018-16.411C53.387,99.188,43.294,87.342,38.1,80.124c7.863,3.033,19.573,7.017,34.336,10.099
					c16.612,3.46,43.647,8.828,75.736,2.524c10.321-2.034,26.668-6.356,44.499-16.412c18.136,9.733,34.562,13.853,45.266,15.779
					c27.938,5.029,51.338,1.333,71.811-1.892c16.441-2.589,29.746-6.067,39.038-8.839c-16.49,16.175-24.547,30.929-28.883,41.663
					c-8.558,21.202-3.248,28.541-14.843,43.548c-2.6,3.376-10.241,13.338-38.241,29.037
					C260.432,199.208,251.781,203.781,241.061,208.605"/>
			</g>
		</g>
	</g>
	<g>
		<g>
			<g>
				<defs>
					<rect id="SVGID_99_" x="-597.5" y="-12" width="1366" height="768"/>
				</defs>
				<clipPath id="SVGID_100_">
					<use xlink:href="#SVGID_99_"  overflow="visible"/>
				</clipPath>
				<path clip-path="url(#SVGID_100_)" fill="#FFFFFF" stroke="#000000" stroke-width="6" d="M238.057,205.211
					c4.962-6.779,7.821-12.556,9.504-16.567c1.502-3.534,1.381-3.264,5.137-13.934c1.943-5.525,4.192-10.986,5.861-16.564
					c2.84-9.562,11.678-23.924,38.024-44.961c-4.963,3.126-24.729,14.759-53.389,13.606c-28.116-1.132-46.133-13.801-50.837-17.333
					c-6.519,4.564-25.596,16.666-53.795,17.924c-29.989,1.34-51.306-10.433-60-15.382c-16.399-9.345-25.853-20.449-30.727-27.214
					c7.366,2.843,18.354,6.579,32.193,9.466c15.556,3.246,40.896,8.279,70.967,2.369c9.687-1.906,24.823-5.959,41.504-15.382
					c17.02,9.122,32.591,12.982,42.637,14.793c26.184,4.704,48.133,1.247,67.302-1.78c15.384-2.428,27.892-5.683,36.594-8.281
					c-15.469,15.159-23.006,28.987-27.063,39.042c-8.035,19.875-3.043,26.758-13.92,40.822c-2.443,3.167-9.588,12.496-35.853,27.211
					C256.221,196.404,248.097,200.688,238.057,205.211"/>
			</g>
		</g>
	</g>
	<g>
		<g>
			<g>
				<defs>
					<rect id="SVGID_101_" x="-597.5" y="-12" width="1366" height="768"/>
				</defs>
				<clipPath id="SVGID_102_">
					<use xlink:href="#SVGID_101_"  overflow="visible"/>
				</clipPath>
				<rect x="389.37" y="462.895" clip-path="url(#SVGID_102_)" fill="#E30613" width="3.729" height="3.729"/>
			</g>
		</g>
	</g>
	<g>
		<g>
			<g>
				<defs>
					<rect id="SVGID_103_" x="-597.5" y="-12" width="1366" height="768"/>
				</defs>
				<clipPath id="SVGID_104_">
					<use xlink:href="#SVGID_103_"  overflow="visible"/>
				</clipPath>
				
					<rect x="389.37" y="462.895" clip-path="url(#SVGID_104_)" fill="none" stroke="#E30613" stroke-width="5" stroke-miterlimit="10" width="3.729" height="3.729"/>
			</g>
		</g>
	</g>
	<g>
		<g>
			<g>
				<defs>
					
						<rect id="SVGID_105_" x="-274.519" y="-67.626" transform="matrix(-0.7071 -0.7071 0.7071 -0.7071 -248.2458 1127.8695)" width="767.972" height="1365.948"/>
				</defs>
				<clipPath id="SVGID_106_">
					<use xlink:href="#SVGID_105_"  overflow="visible"/>
				</clipPath>
				
					<rect x="389.371" y="462.89" transform="matrix(-0.7071 -0.7071 0.7071 -0.7071 339.2516 1070.0314)" clip-path="url(#SVGID_106_)" fill="#E30613" width="3.732" height="3.73"/>
			</g>
		</g>
	</g>
	<g>
		<g>
			<g>
				<defs>
					
						<rect id="SVGID_107_" x="-274.519" y="-67.626" transform="matrix(-0.7071 -0.7071 0.7071 -0.7071 -248.2458 1127.8695)" width="767.972" height="1365.948"/>
				</defs>
				<clipPath id="SVGID_108_">
					<use xlink:href="#SVGID_107_"  overflow="visible"/>
				</clipPath>
				
					<rect x="389.371" y="462.89" transform="matrix(-0.7071 -0.7071 0.7071 -0.7071 339.2516 1070.0314)" clip-path="url(#SVGID_108_)" fill="none" stroke="#E30613" stroke-width="5" stroke-miterlimit="10" width="3.732" height="3.73"/>
			</g>
		</g>
	</g>
	<g>
		<g>
			<g>
				<defs>
					<rect id="SVGID_109_" x="-597.5" y="-12" width="1366" height="768"/>
				</defs>
				<clipPath id="SVGID_110_">
					<use xlink:href="#SVGID_109_"  overflow="visible"/>
				</clipPath>
				<path clip-path="url(#SVGID_110_)" fill="#FFFFFF" d="M143.681,202.119c-5.267,7.236-8.311,13.404-10.114,17.689
					c-1.59,3.77-1.468,3.479-5.428,14.873c-2.072,5.898-4.463,11.721-6.223,17.684c-3.018,10.199-12.402,25.535-40.494,48.016
					c5.305-3.34,26.373-15.775,56.948-14.582c29.977,1.172,49.248,14.668,54.264,18.422c6.956-4.873,27.294-17.813,57.372-19.191
					c31.972-1.467,54.77,11.068,64.029,16.34c17.521,9.943,27.636,21.781,32.841,28.99c-7.86-3.023-19.579-6.992-34.371-10.059
					c-16.588-3.438-43.637-8.775-75.711-2.434c-10.339,2.047-26.668,6.391-44.466,16.467c-18.176-9.717-34.591-13.813-45.312-15.727
					c-27.955-4.992-51.347-1.273-71.816,1.982c-16.409,2.604-29.729,6.102-39.01,8.883c16.448-16.191,24.502-30.953,28.811-41.695
					c8.518-21.211,3.181-28.549,14.743-43.568c2.595-3.381,10.224-13.348,38.198-29.082
					C124.324,211.543,132.972,206.963,143.681,202.119"/>
			</g>
		</g>
	</g>
	<g>
		<g>
			<g>
				<defs>
					<rect id="SVGID_111_" x="-597.5" y="-12" width="1366" height="768"/>
				</defs>
				<clipPath id="SVGID_112_">
					<use xlink:href="#SVGID_111_"  overflow="visible"/>
				</clipPath>
				<path clip-path="url(#SVGID_112_)" fill="#FFFFFF" d="M114.469,293.298c4.3-3.125,21.349-14.784,46.091-13.666"/>
			</g>
			<g>
				<defs>
					<rect id="SVGID_113_" x="-597.5" y="-12" width="1366" height="768"/>
				</defs>
				<clipPath id="SVGID_114_">
					<use xlink:href="#SVGID_113_"  overflow="visible"/>
				</clipPath>
				<path clip-path="url(#SVGID_114_)" fill="#FFFFFF" d="M156.675,217.785c-0.067,0.732-0.354,0.889-0.935,2.613
					c-0.607,1.795-1.241,3.939-3.462,11.328c-1.671,5.525-3.608,10.982-5.028,16.57"/>
			</g>
		</g>
	</g>
	<g>
		<g>
			<g>
				<defs>
					<rect id="SVGID_115_" x="-597.5" y="-12" width="1366" height="768"/>
				</defs>
				<clipPath id="SVGID_116_">
					<use xlink:href="#SVGID_115_"  overflow="visible"/>
				</clipPath>
				<path clip-path="url(#SVGID_116_)" fill="#FFFFFF" stroke="#000000" stroke-width="6" d="M146.691,205.516
					c-4.935,6.783-7.794,12.561-9.484,16.572c-1.487,3.537-1.365,3.268-5.1,13.941c-1.925,5.525-4.163,10.986-5.818,16.57
					c-2.819,9.563-11.639,23.938-37.956,45.008c4.977-3.131,24.712-14.789,53.377-13.67c28.103,1.098,46.146,13.748,50.859,17.271
					c6.516-4.574,25.574-16.701,53.759-17.994c29.976-1.373,51.348,10.375,60.02,15.313c16.426,9.322,25.895,20.418,30.785,27.174
					c-7.375-2.83-18.349-6.555-32.212-9.426c-15.563-3.219-40.911-8.229-70.968-2.281c-9.674,1.918-25.007,5.986-41.677,15.438
					c-17.021-9.104-32.425-12.945-42.464-14.738c-26.188-4.684-48.129-1.197-67.308,1.854c-15.378,2.447-27.868,5.723-36.569,8.328
					c15.424-15.18,22.967-29.014,27.012-39.076c7.96-19.881,2.979-26.762,13.811-40.838c2.449-3.166,9.588-12.506,35.812-27.258
					C128.53,214.342,136.651,210.053,146.691,205.516"/>
			</g>
		</g>
	</g>
</g>
</svg>
